name E:\Dropbox\SEL\BOX\Experiment\240124_SUB1_PJH\c3d\XYZ\UpDown_TrcMot\15_10_trial1_U1_ExtLoadAPP1.mot
datacolumns 37
datarows 6
range 2.44 2.445
endheader

time	    ground_force1_vx	    ground_force1_vy	    ground_force1_vz	    ground_force1_px	    ground_force1_py	    ground_force1_pz	    ground_torque1_x	    ground_torque1_y	    ground_torque1_z	    ground_force2_vx	    ground_force2_vy	    ground_force2_vz	    ground_force2_px	    ground_force2_py	    ground_force2_pz	    ground_torque2_x	    ground_torque2_y	    ground_torque2_z	      hand_force3_vx	      hand_force3_vy	      hand_force3_vz	      hand_force3_px	      hand_force3_py	      hand_force3_pz	      hand_torque3_x	      hand_torque3_y	      hand_torque3_z	      hand_force4_vx	      hand_force4_vy	      hand_force4_vz	      hand_force4_px	      hand_force4_py	      hand_force4_pz	      hand_torque4_x	      hand_torque4_y	      hand_torque4_z	
2.44	         34.93980691	        431.66554249	          7.36342103	          0.22372772	          0.00000000	          0.26055839	          0.00000000	         -6.88910767	          0.00000000	        -39.75198519	        428.56905510	         -7.62867008	          0.58442482	          0.00000000	          0.24720976	          0.00000000	          4.27328963	          0.00000000	         -5.33080055	          0.84432089	          0.49207714	          0.23683400	          0.40821164	         -0.04579333	          0.00005415	          0.06591847	         -0.00007049	          5.79928759	          0.80681816	          1.67248885	          0.55814379	          0.40821164	         -0.04575341	         -0.00008465	         -0.09869991	          0.00011420	
2.441	         34.93565503	        431.71955572	          7.25359676	          0.22375395	          0.00000000	          0.26071562	          0.00000000	         -6.88684814	          0.00000000	        -39.70409036	        428.24028337	         -7.73576422	          0.58440461	          0.00000000	          0.24727163	          0.00000000	          4.26124119	          0.00000000	         -5.45998894	          0.88375974	          0.49844779	          0.23683667	          0.40821296	         -0.04579477	          0.00005526	          0.06733691	         -0.00007201	          5.77570074	          0.77748307	          1.64395636	          0.55805005	          0.40821296	         -0.04574873	         -0.00008329	         -0.09699551	          0.00011312	
2.442	         34.93283420	        431.77141871	          7.14268126	          0.22378001	          0.00000000	          0.26087454	          0.00000000	         -6.88471118	          0.00000000	        -39.65398076	        427.91152445	         -7.84136367	          0.58438388	          0.00000000	          0.24733371	          0.00000000	          4.24919179	          0.00000000	         -5.58551973	          0.92312154	          0.50424501	          0.23684380	          0.40821442	         -0.04579625	          0.00005630	          0.06866839	         -0.00007344	          5.74956277	          0.74574808	          1.61250874	          0.55795136	          0.40821442	         -0.04574398	         -0.00008177	         -0.09510694	          0.00011186	
2.443	         34.93134486	        431.82110899	          7.03072611	          0.22380592	          0.00000000	          0.26103509	          0.00000000	         -6.88269752	          0.00000000	        -39.60166360	        427.58294900	         -7.94547649	          0.58436262	          0.00000000	          0.24739594	          0.00000000	          4.23714314	          0.00000000	         -5.70719045	          0.96232708	          0.50943933	          0.23685558	          0.40821599	         -0.04579776	          0.00005725	          0.06990838	         -0.00007479	          5.72109297	          0.71157327	          1.57817535	          0.55784788	          0.40821599	         -0.04573918	         -0.00008010	         -0.09303865	          0.00011043	
2.444	         34.93118530	        431.86860969	          6.91778585	          0.22383165	          0.00000000	          0.26119718	          0.00000000	         -6.88080752	          0.00000000	        -39.54715210	        427.25472717	         -8.04811205	          0.58434086	          0.00000000	          0.24745826	          0.00000000	          4.22509671	          0.00000000	         -5.82481328	          1.00129588	          0.51400272	          0.23687220	          0.40821770	         -0.04579932	          0.00005813	          0.07105262	         -0.00007604	          5.69051604	          0.67492001	          1.54099290	          0.55773983	          0.40821770	         -0.04573435	         -0.00007828	         -0.09079572	          0.00010884	
2.445	         34.93235168	        431.91390949	          6.80391792	          0.22385721	          0.00000000	          0.26136073	          0.00000000	         -6.87904120	          0.00000000	        -39.49046540	        426.92702824	         -8.14928094	          0.58431859	          0.00000000	          0.24752064	          0.00000000	          4.21305374	          0.00000000	         -5.93821591	          1.03994633	          0.51790878	          0.23689384	          0.40821955	         -0.04580092	          0.00005892	          0.07209713	         -0.00007719	          5.65806127	          0.63575095	          1.50100530	          0.55762742	          0.40821955	         -0.04572952	         -0.00007633	         -0.08838387	          0.00010708	
